<svg viewBox="0 0 31 31" xmlns="http://www.w3.org/2000/svg"><path d="m171.702 735.282c-.4-.4-1.04-.4-1.43 0l-5.01 5c-.4.39-.4 1.03 0 1.43.39.39 1.03.39 1.43 0l5-5.01c.39-.4.39-1.04 0-1.44zm11.08-9.67-1.43-1.43c-1.58-1.58-4.15-1.58-5.72 0l-7.16 7.15c-1.06 1.05-1.39 2.54-1.04 3.89l9.61-9.62c.79-.79 2.07-.79 2.86 0l1.43 1.43c.79.79.79 2.07 0 2.86l-9.62 9.61c1.34.35 2.83.02 3.89-1.04l7.15-7.15c1.58-1.58 1.58-4.15 0-5.73zm-22.881 25.74c-.79.79-2.08.79-2.87 0l-1.43-1.43c-.79-.79-.79-2.08 0-2.87l9.61-9.62c-1.35-.36-2.84-.03-3.9 1.03l-7.15 7.15c-1.58 1.57-1.58 4.14 0 5.71l1.43 1.43c1.57 1.58 4.14 1.58 5.72 0l7.15-7.15c1.05-1.06 1.39-2.55 1.03-3.9l-9.62 9.61z" fill-rule="evenodd" transform="translate(-153 -723)"/></svg>